# xmcd
#
# Track frame offsets:
#	150
#	14475
#	23910
#	36100
#	47582
#	61437
#	71457
#	82012
#	97615
#	112995
#	126415
#	134960
#	145845
#	158932
#
# Disc length: 2277 seconds
#
# Revision: 1
# Processed by: cddbd v1.5.1PL0 Copyright (c) Steve Scherf et al.
# Submitted via: audiograbber 1.83.01
#
DISCID=c208e30e
DTITLE=Marty Robbins - Love Songs
DYEAR=2004
DGENRE=
TTITLE0=Have I Told You Lately That I Love You
TTITLE1=Half As Much
TTITLE2=Too Young
TTITLE3=My Happiness
TTITLE4=Love Me Tender
TTITLE5=Can't Help Falling In Love
TTITLE6=Unchained Melody
TTITLE7=I'm In The Mood For Love
TTITLE8=Misty
TTITLE9=All The Way
TTITLE10=To Each His Own
TTITLE11=I Don't Know Why (I Just Do)
TTITLE12=Return To Me
TTITLE13=Yours (Quiereme Mucho)
EXTD=
EXTT0=
EXTT1=
EXTT2=
EXTT3=
EXTT4=
EXTT5=
EXTT6=
EXTT7=
EXTT8=
EXTT9=
EXTT10=
EXTT11=
EXTT12=
EXTT13=
PLAYORDER=
